<svg width="214" height="43" viewBox="0 0 214 43" fill="none" xmlns="http://www.w3.org/2000/svg">
<rect width="214" height="43" rx="5" fill="#FF5B24"/>
<path d="M40.9258 28V14.9651H46.129C48.7757 14.9651 50.5643 16.7085 50.5643 19.3191V19.3372C50.5643 21.9387 48.7757 23.6912 46.129 23.6912H43.2564V28H40.9258ZM45.5599 16.8711H43.2564V21.8123H45.5599C47.231 21.8123 48.2066 20.9089 48.2066 19.3462V19.3281C48.2066 17.7654 47.231 16.8711 45.5599 16.8711ZM55.0344 28.1626C53.1555 28.1626 51.7915 27.0063 51.7915 25.2087V25.1907C51.7915 23.4292 53.1375 22.3994 55.5403 22.2549L58.0786 22.1013V21.2522C58.0786 20.2676 57.4373 19.7256 56.2268 19.7256C55.197 19.7256 54.5286 20.0959 54.3027 20.7463L54.2937 20.7825H52.1709L52.1799 20.7012C52.3967 19.0391 53.9866 17.937 56.3352 17.937C58.8735 17.937 60.3008 19.1655 60.3008 21.2522V28H58.0786V26.645H57.925C57.3831 27.6025 56.3352 28.1626 55.0344 28.1626ZM54.0137 25.1003C54.0137 25.9404 54.7273 26.4373 55.7209 26.4373C57.0759 26.4373 58.0786 25.552 58.0786 24.3777V23.5828L55.8564 23.7273C54.6008 23.8086 54.0137 24.2693 54.0137 25.0823V25.1003ZM63.5515 31.4688C63.2805 31.4688 62.9643 31.4597 62.6933 31.4326V29.7073C62.874 29.7253 63.1269 29.7344 63.3618 29.7344C64.2832 29.7344 64.8342 29.355 65.0781 28.4607L65.1955 28.009L61.6635 18.1267H64.1206L66.424 25.8411H66.5957L68.8901 18.1267H71.2568L67.7158 28.2078C66.8667 30.6829 65.7375 31.4688 63.5515 31.4688ZM79.6009 28L76.9271 18.1267H79.1854L80.8294 25.543H80.983L82.88 18.1267H85.0209L86.9359 25.543H87.0895L88.7245 18.1267H90.9557L88.2818 28H85.9242L84.0001 20.8457H83.8465L81.9315 28H79.6009ZM93.8721 16.4736C93.1314 16.4736 92.5262 15.8865 92.5262 15.1458C92.5262 14.4141 93.1314 13.8179 93.8721 13.8179C94.6038 13.8179 95.209 14.4141 95.209 15.1458C95.209 15.8865 94.6038 16.4736 93.8721 16.4736ZM92.743 28V18.1267H94.9922V28H92.743ZM101.441 28.0452C99.1733 28.0452 98.2429 27.2864 98.2429 25.3804V19.8701H96.7073V18.1267H98.2429V15.7058H100.528V18.1267H102.615V19.8701H100.528V24.8474C100.528 25.832 100.917 26.2476 101.856 26.2476C102.172 26.2476 102.344 26.2385 102.615 26.2114V27.9458C102.29 28.009 101.874 28.0452 101.441 28.0452ZM104.746 28V14.3057H106.995V19.6353H107.148C107.618 18.5784 108.567 17.937 109.994 17.937C112.198 17.937 113.399 19.2649 113.399 21.6135V28H111.15V22.1375C111.15 20.6018 110.527 19.825 109.163 19.825C107.826 19.825 106.995 20.7644 106.995 22.2458V28H104.746Z" fill="white"/>
<path fill-rule="evenodd" clip-rule="evenodd" d="M175 20.6636C174.392 18.3452 172.917 17.4249 170.903 17.4249C169.272 17.4249 167.224 18.3452 167.224 20.5613C167.224 21.993 168.213 23.1182 169.827 23.4081L171.355 23.6806C172.396 23.868 172.691 24.2602 172.691 24.7887C172.691 25.3853 172.049 25.7261 171.095 25.7261C169.845 25.7261 169.064 25.283 168.942 24.0385L166.738 24.3795C167.085 26.7828 169.237 27.7718 171.181 27.7718C173.021 27.7718 174.982 26.7147 174.982 24.5841C174.982 23.135 174.097 22.0785 172.448 21.7712L170.765 21.4647C169.827 21.2943 169.515 20.834 169.515 20.3908C169.515 19.8282 170.122 19.4706 170.956 19.4706C172.014 19.4706 172.761 19.8282 172.795 21.0044L175 20.6636ZM125.999 24.311L128.29 17.6805H130.98L126.988 27.5157H124.992L121 17.6806H123.69L125.999 24.311ZM140.076 20.4931C140.076 21.2771 139.451 21.8226 138.722 21.8226C137.993 21.8226 137.368 21.2771 137.368 20.4931C137.368 19.709 137.993 19.1637 138.722 19.1637C139.451 19.1637 140.076 19.709 140.076 20.4931H140.076ZM140.492 23.9705C139.59 25.1293 138.635 25.9305 136.951 25.9305C135.233 25.9305 133.897 24.9078 132.855 23.4079C132.439 22.7942 131.796 22.6579 131.328 22.9818C130.894 23.2887 130.79 23.9364 131.189 24.499C132.629 26.6637 134.625 27.9249 136.951 27.9249C139.086 27.9249 140.753 26.9023 142.054 25.1977C142.54 24.5671 142.523 23.9194 142.054 23.5614C141.62 23.2201 140.978 23.34 140.492 23.9705ZM146.481 22.5726C146.481 24.5841 147.662 25.641 148.981 25.641C150.23 25.641 151.515 24.6522 151.515 22.5726C151.515 20.5269 150.23 19.5385 148.998 19.5385C147.662 19.5385 146.481 20.476 146.481 22.5726ZM146.481 19.0445V17.6975H144.034V30.9249H146.481V26.2202C147.297 27.3113 148.356 27.7718 149.553 27.7718C151.793 27.7718 153.98 26.033 153.98 22.4535C153.98 19.0271 151.706 17.4251 149.762 17.4251C148.217 17.4251 147.158 18.1238 146.481 19.0445ZM158.233 22.5726C158.233 24.5841 159.413 25.641 160.732 25.641C161.982 25.641 163.266 24.6522 163.266 22.5726C163.266 20.5269 161.982 19.5385 160.749 19.5385C159.413 19.5385 158.232 20.476 158.232 22.5726H158.233ZM158.233 19.0445V17.6975H158.232H155.785V30.9249H158.232V26.2202C159.048 27.3113 160.107 27.7718 161.304 27.7718C163.544 27.7718 165.731 26.033 165.731 22.4535C165.731 19.0271 163.457 17.4251 161.513 17.4251C159.968 17.4251 158.909 18.1238 158.233 19.0445Z" fill="white"/>
</svg>
