<svg width="214" height="43" viewBox="0 0 214 43" fill="none" xmlns="http://www.w3.org/2000/svg">
<rect width="214" height="43" rx="21.5" fill="#FF5B24"/>
<path d="M33.8444 28V14.9651H39.2915C41.7666 14.9651 43.257 16.2117 43.257 18.208V18.2261C43.257 19.5901 42.2453 20.8005 40.9355 21.0083V21.1709C42.6879 21.3335 43.8984 22.5981 43.8984 24.2874V24.3054C43.8984 26.5908 42.2001 28 39.4179 28H33.8444ZM38.7224 16.7808H36.175V20.4573H38.4243C40.0773 20.4573 40.9536 19.8159 40.9536 18.6326V18.6145C40.9536 17.4583 40.1315 16.7808 38.7224 16.7808ZM38.7946 22.1104H36.175V26.1843H38.885C40.6013 26.1843 41.5136 25.4707 41.5136 24.1428V24.1248C41.5136 22.8059 40.5742 22.1104 38.7946 22.1104ZM50.2294 28.1987C47.2936 28.1987 45.5141 26.2295 45.5141 23.0859V23.0769C45.5141 19.9695 47.3117 17.937 50.121 17.937C52.9303 17.937 54.6647 19.9062 54.6647 22.8872V23.6279H47.7633C47.7904 25.3984 48.7479 26.4282 50.2746 26.4282C51.494 26.4282 52.1896 25.814 52.4064 25.3623L52.4335 25.2991H54.5744L54.5473 25.3804C54.2311 26.6541 52.9123 28.1987 50.2294 28.1987ZM50.1481 19.6985C48.8925 19.6985 47.953 20.5476 47.7814 22.1194H52.4696C52.3161 20.5024 51.4037 19.6985 50.1481 19.6985ZM60.5982 28.0452C58.3309 28.0452 57.4005 27.2864 57.4005 25.3804V19.8701H55.8648V18.1267H57.4005V15.7058H59.6859V18.1267H61.7726V19.8701H59.6859V24.8474C59.6859 25.832 60.0743 26.2476 61.0138 26.2476C61.3299 26.2476 61.5016 26.2385 61.7726 26.2114V27.9458C61.4474 28.009 61.0318 28.0452 60.5982 28.0452ZM66.5047 28.1626C64.6258 28.1626 63.2618 27.0063 63.2618 25.2087V25.1907C63.2618 23.4292 64.6077 22.3994 67.0105 22.2549L69.5489 22.1013V21.2522C69.5489 20.2676 68.9075 19.7256 67.6971 19.7256C66.6673 19.7256 65.9988 20.0959 65.773 20.7463L65.764 20.7825H63.6412L63.6502 20.7012C63.867 19.0391 65.4568 17.937 67.8055 17.937C70.3438 17.937 71.771 19.1655 71.771 21.2522V28H69.5489V26.645H69.3953C68.8533 27.6025 67.8055 28.1626 66.5047 28.1626ZM65.4839 25.1003C65.4839 25.9404 66.1976 26.4373 67.1912 26.4373C68.5462 26.4373 69.5489 25.552 69.5489 24.3777V23.5828L67.3267 23.7273C66.0711 23.8086 65.4839 24.2693 65.4839 25.0823V25.1003ZM74.3623 28V14.3057H76.6116V28H74.3623ZM83.9892 28V18.1267H86.2384V19.6624H86.392C86.8166 18.5603 87.8102 17.937 89.102 17.937C90.4389 17.937 91.4145 18.6235 91.839 19.7166H91.9926C92.4713 18.6416 93.6095 17.937 94.9826 17.937C96.9699 17.937 98.1623 19.1565 98.1623 21.207V28H95.913V21.7581C95.913 20.4753 95.3258 19.825 94.1244 19.825C92.9501 19.825 92.1913 20.7012 92.1913 21.8303V28H89.942V21.5955C89.942 20.5024 89.2645 19.825 88.1625 19.825C87.0514 19.825 86.2384 20.7644 86.2384 21.9929V28H83.9892ZM104.855 28.1987C101.919 28.1987 100.139 26.2295 100.139 23.0859V23.0769C100.139 19.9695 101.937 17.937 104.746 17.937C107.556 17.937 109.29 19.9062 109.29 22.8872V23.6279H102.389C102.416 25.3984 103.373 26.4282 104.9 26.4282C106.119 26.4282 106.815 25.814 107.032 25.3623L107.059 25.2991H109.2L109.172 25.3804C108.856 26.6541 107.537 28.1987 104.855 28.1987ZM104.773 19.6985C103.518 19.6985 102.578 20.5476 102.407 22.1194H107.095C106.941 20.5024 106.029 19.6985 104.773 19.6985ZM114.898 28.1626C112.423 28.1626 110.851 26.2024 110.851 23.0769V23.0588C110.851 19.9153 112.396 17.9641 114.898 17.9641C116.253 17.9641 117.382 18.6326 117.897 19.6985H118.051V14.3057H120.309V28H118.051V26.4553H117.897C117.355 27.5303 116.289 28.1626 114.898 28.1626ZM115.603 26.2656C117.138 26.2656 118.087 25.0552 118.087 23.0769V23.0588C118.087 21.0806 117.129 19.8611 115.603 19.8611C114.076 19.8611 113.137 21.0715 113.137 23.0588V23.0769C113.137 25.0642 114.067 26.2656 115.603 26.2656Z" fill="white"/>
<path fill-rule="evenodd" clip-rule="evenodd" d="M182 20.6636C181.392 18.3452 179.917 17.4249 177.903 17.4249C176.272 17.4249 174.224 18.3452 174.224 20.5613C174.224 21.993 175.213 23.1182 176.827 23.4081L178.355 23.6806C179.396 23.868 179.691 24.2602 179.691 24.7887C179.691 25.3853 179.049 25.7261 178.095 25.7261C176.845 25.7261 176.064 25.283 175.942 24.0385L173.738 24.3795C174.085 26.7828 176.237 27.7718 178.181 27.7718C180.021 27.7718 181.982 26.7147 181.982 24.5841C181.982 23.135 181.097 22.0785 179.448 21.7712L177.765 21.4647C176.827 21.2943 176.515 20.834 176.515 20.3908C176.515 19.8282 177.122 19.4706 177.956 19.4706C179.014 19.4706 179.761 19.8282 179.795 21.0044L182 20.6636ZM132.999 24.311L135.29 17.6805H137.98L133.988 27.5157H131.992L128 17.6806H130.69L132.999 24.311ZM147.076 20.4931C147.076 21.2771 146.451 21.8226 145.722 21.8226C144.993 21.8226 144.368 21.2771 144.368 20.4931C144.368 19.709 144.993 19.1637 145.722 19.1637C146.451 19.1637 147.076 19.709 147.076 20.4931H147.076ZM147.492 23.9705C146.59 25.1293 145.635 25.9305 143.951 25.9305C142.233 25.9305 140.897 24.9078 139.855 23.4079C139.439 22.7942 138.796 22.6579 138.328 22.9818C137.894 23.2887 137.79 23.9364 138.189 24.499C139.629 26.6637 141.625 27.9249 143.951 27.9249C146.086 27.9249 147.753 26.9023 149.054 25.1977C149.54 24.5671 149.523 23.9194 149.054 23.5614C148.62 23.2201 147.978 23.34 147.492 23.9705ZM153.481 22.5726C153.481 24.5841 154.662 25.641 155.981 25.641C157.23 25.641 158.515 24.6522 158.515 22.5726C158.515 20.5269 157.23 19.5385 155.998 19.5385C154.662 19.5385 153.481 20.476 153.481 22.5726ZM153.481 19.0445V17.6975H151.034V30.9249H153.481V26.2202C154.297 27.3113 155.356 27.7718 156.553 27.7718C158.793 27.7718 160.98 26.033 160.98 22.4535C160.98 19.0271 158.706 17.4251 156.762 17.4251C155.217 17.4251 154.158 18.1238 153.481 19.0445ZM165.233 22.5726C165.233 24.5841 166.413 25.641 167.732 25.641C168.982 25.641 170.266 24.6522 170.266 22.5726C170.266 20.5269 168.982 19.5385 167.749 19.5385C166.413 19.5385 165.232 20.476 165.232 22.5726H165.233ZM165.233 19.0445V17.6975H165.232H162.785V30.9249H165.232V26.2202C166.048 27.3113 167.107 27.7718 168.304 27.7718C170.544 27.7718 172.731 26.033 172.731 22.4535C172.731 19.0271 170.457 17.4251 168.513 17.4251C166.968 17.4251 165.909 18.1238 165.233 19.0445Z" fill="white"/>
</svg>
