<svg width="214" height="43" viewBox="0 0 214 43" fill="none" xmlns="http://www.w3.org/2000/svg">
<rect width="214" height="43" rx="21.5" fill="#FF5B24"/>
<path d="M20.8476 28V14.9651H29.1581V16.9253H23.1781V20.7825H28.6432V22.6794H23.1781V28H20.8476ZM35.5704 28.1987C32.6075 28.1987 30.8189 26.2656 30.8189 23.0679V23.0498C30.8189 19.8792 32.6346 17.937 35.5704 17.937C38.5152 17.937 40.3219 19.8701 40.3219 23.0498V23.0679C40.3219 26.2656 38.5243 28.1987 35.5704 28.1987ZM35.5704 26.374C37.1332 26.374 38.0184 25.1545 38.0184 23.0769V23.0588C38.0184 20.9812 37.1241 19.7527 35.5704 19.7527C34.0077 19.7527 33.1134 20.9812 33.1134 23.0588V23.0769C33.1134 25.1545 34.0077 26.374 35.5704 26.374ZM42.3802 28V18.1267H44.6294V19.6443H44.783C45.1172 18.5874 46.0206 17.9641 47.3213 17.9641C47.6646 17.9641 48.0169 18.0093 48.2337 18.0725V20.0869C47.8724 20.0146 47.502 19.9604 47.1136 19.9604C45.6141 19.9604 44.6294 20.8547 44.6294 22.2639V28H42.3802ZM54.2124 28.0452C51.9451 28.0452 51.0146 27.2864 51.0146 25.3804V19.8701H49.479V18.1267H51.0146V15.7058H53.3V18.1267H55.3867V19.8701H53.3V24.8474C53.3 25.832 53.6885 26.2476 54.6279 26.2476C54.9441 26.2476 55.1157 26.2385 55.3867 26.2114V27.9458C55.0615 28.009 54.646 28.0452 54.2124 28.0452ZM61.0312 28.1987C58.52 28.1987 57.0024 27.0425 56.8127 25.3713V25.3533H59.0439L59.0529 25.3713C59.2878 26.0579 59.9472 26.5366 61.0673 26.5366C62.1875 26.5366 62.9643 26.0308 62.9643 25.29V25.272C62.9643 24.6938 62.5307 24.3145 61.4467 24.0706L59.8479 23.7092C57.9689 23.2937 57.0747 22.4084 57.0747 20.9541V20.9451C57.0747 19.1655 58.7006 17.937 61.0312 17.937C63.434 17.937 64.8703 19.1294 65.0148 20.7283V20.7463H62.9011L62.892 20.7192C62.7294 20.0959 62.0791 19.5901 61.0222 19.5901C60.0195 19.5901 59.2968 20.0779 59.2968 20.8186V20.8276C59.2968 21.4058 59.7124 21.7581 60.7783 22.002L62.3771 22.3542C64.3103 22.7878 65.2226 23.6099 65.2226 25.0461V25.0642C65.2226 26.9431 63.4611 28.1987 61.0312 28.1987ZM71.5175 28.1987C68.5817 28.1987 66.8021 26.2295 66.8021 23.0859V23.0769C66.8021 19.9695 68.5998 17.937 71.4091 17.937C74.2184 17.937 75.9528 19.9062 75.9528 22.8872V23.6279H69.0514C69.0785 25.3984 70.036 26.4282 71.5626 26.4282C72.7821 26.4282 73.4777 25.814 73.6945 25.3623L73.7216 25.2991H75.8624L75.8354 25.3804C75.5192 26.6541 74.2003 28.1987 71.5175 28.1987ZM71.4362 19.6985C70.1806 19.6985 69.2411 20.5476 69.0695 22.1194H73.7577C73.6041 20.5024 72.6918 19.6985 71.4362 19.6985ZM81.8863 28.0452C79.619 28.0452 78.6886 27.2864 78.6886 25.3804V19.8701H77.1529V18.1267H78.6886V15.7058H80.974V18.1267H83.0606V19.8701H80.974V24.8474C80.974 25.832 81.3624 26.2476 82.3019 26.2476C82.618 26.2476 82.7896 26.2385 83.0606 26.2114V27.9458C82.7354 28.009 82.3199 28.0452 81.8863 28.0452ZM89.0394 28.0452C86.772 28.0452 85.8416 27.2864 85.8416 25.3804V19.8701H84.306V18.1267H85.8416V15.7058H88.127V18.1267H90.2137V19.8701H88.127V24.8474C88.127 25.832 88.5154 26.2476 89.4549 26.2476C89.771 26.2476 89.9427 26.2385 90.2137 26.2114V27.9458C89.8885 28.009 89.4729 28.0452 89.0394 28.0452ZM96.986 28V18.1267H99.2353V19.6624H99.3889C99.8134 18.5603 100.807 17.937 102.099 17.937C103.436 17.937 104.411 18.6235 104.836 19.7166H104.989C105.468 18.6416 106.606 17.937 107.979 17.937C109.967 17.937 111.159 19.1565 111.159 21.207V28H108.91V21.7581C108.91 20.4753 108.323 19.825 107.121 19.825C105.947 19.825 105.188 20.7012 105.188 21.8303V28H102.939V21.5955C102.939 20.5024 102.261 19.825 101.159 19.825C100.048 19.825 99.2353 20.7644 99.2353 21.9929V28H96.986ZM117.851 28.1987C114.916 28.1987 113.136 26.2295 113.136 23.0859V23.0769C113.136 19.9695 114.934 17.937 117.743 17.937C120.552 17.937 122.287 19.9062 122.287 22.8872V23.6279H115.385C115.412 25.3984 116.37 26.4282 117.897 26.4282C119.116 26.4282 119.812 25.814 120.028 25.3623L120.056 25.2991H122.196L122.169 25.3804C121.853 26.6541 120.534 28.1987 117.851 28.1987ZM117.77 19.6985C116.515 19.6985 115.575 20.5476 115.403 22.1194H120.092C119.938 20.5024 119.026 19.6985 117.77 19.6985ZM127.895 28.1626C125.42 28.1626 123.848 26.2024 123.848 23.0769V23.0588C123.848 19.9153 125.393 17.9641 127.895 17.9641C129.25 17.9641 130.379 18.6326 130.894 19.6985H131.048V14.3057H133.306V28H131.048V26.4553H130.894C130.352 27.5303 129.286 28.1626 127.895 28.1626ZM128.6 26.2656C130.135 26.2656 131.084 25.0552 131.084 23.0769V23.0588C131.084 21.0806 130.126 19.8611 128.6 19.8611C127.073 19.8611 126.134 21.0715 126.134 23.0588V23.0769C126.134 25.0642 127.064 26.2656 128.6 26.2656Z" fill="white"/>
<path fill-rule="evenodd" clip-rule="evenodd" d="M195 20.6636C194.392 18.3452 192.917 17.4249 190.903 17.4249C189.272 17.4249 187.224 18.3452 187.224 20.5613C187.224 21.993 188.213 23.1182 189.827 23.4081L191.355 23.6806C192.396 23.868 192.691 24.2602 192.691 24.7887C192.691 25.3853 192.049 25.7261 191.095 25.7261C189.845 25.7261 189.064 25.283 188.942 24.0385L186.738 24.3795C187.085 26.7828 189.237 27.7718 191.181 27.7718C193.021 27.7718 194.982 26.7147 194.982 24.5841C194.982 23.135 194.097 22.0785 192.448 21.7712L190.765 21.4647C189.827 21.2943 189.515 20.834 189.515 20.3908C189.515 19.8282 190.122 19.4706 190.956 19.4706C192.014 19.4706 192.761 19.8282 192.795 21.0044L195 20.6636ZM145.999 24.311L148.29 17.6805H150.98L146.988 27.5157H144.992L141 17.6806H143.69L145.999 24.311ZM160.076 20.4931C160.076 21.2771 159.451 21.8226 158.722 21.8226C157.993 21.8226 157.368 21.2771 157.368 20.4931C157.368 19.709 157.993 19.1637 158.722 19.1637C159.451 19.1637 160.076 19.709 160.076 20.4931H160.076ZM160.492 23.9705C159.59 25.1293 158.635 25.9305 156.951 25.9305C155.233 25.9305 153.897 24.9078 152.855 23.4079C152.439 22.7942 151.796 22.6579 151.328 22.9818C150.894 23.2887 150.79 23.9364 151.189 24.499C152.629 26.6637 154.625 27.9249 156.951 27.9249C159.086 27.9249 160.753 26.9023 162.054 25.1977C162.54 24.5671 162.523 23.9194 162.054 23.5614C161.62 23.2201 160.978 23.34 160.492 23.9705ZM166.481 22.5726C166.481 24.5841 167.662 25.641 168.981 25.641C170.23 25.641 171.515 24.6522 171.515 22.5726C171.515 20.5269 170.23 19.5385 168.998 19.5385C167.662 19.5385 166.481 20.476 166.481 22.5726ZM166.481 19.0445V17.6975H164.034V30.9249H166.481V26.2202C167.297 27.3113 168.356 27.7718 169.553 27.7718C171.793 27.7718 173.979 26.033 173.979 22.4535C173.979 19.0271 171.706 17.4251 169.762 17.4251C168.217 17.4251 167.158 18.1238 166.481 19.0445ZM178.233 22.5726C178.233 24.5841 179.413 25.641 180.732 25.641C181.982 25.641 183.266 24.6522 183.266 22.5726C183.266 20.5269 181.982 19.5385 180.749 19.5385C179.413 19.5385 178.232 20.476 178.232 22.5726H178.233ZM178.233 19.0445V17.6975H178.232H175.785V30.9249H178.232V26.2202C179.048 27.3113 180.107 27.7718 181.304 27.7718C183.544 27.7718 185.731 26.033 185.731 22.4535C185.731 19.0271 183.457 17.4251 181.513 17.4251C179.968 17.4251 178.91 18.1238 178.233 19.0445Z" fill="white"/>
</svg>
