<svg width="214" height="43" viewBox="0 0 214 43" fill="none" xmlns="http://www.w3.org/2000/svg">
<rect width="214" height="43" rx="21.5" fill="#FF5B24"/>
<path d="M22.3116 28.3252C18.617 28.3252 16.3226 25.7056 16.3226 21.4961V21.478C16.3226 17.2505 18.608 14.6399 22.3025 14.6399C25.2654 14.6399 27.5147 16.5188 27.8218 19.1836V19.2559H25.5364L25.5274 19.2197C25.1932 17.675 23.9466 16.6543 22.3025 16.6543C20.0894 16.6543 18.7073 18.5061 18.7073 21.469V21.4871C18.7073 24.459 20.0894 26.3108 22.3116 26.3108C23.9646 26.3108 25.1932 25.3894 25.5274 23.9531L25.5364 23.908H27.8218V23.9712C27.4786 26.5818 25.3196 28.3252 22.3116 28.3252ZM34.2522 28.1987C31.2893 28.1987 29.5007 26.2656 29.5007 23.0679V23.0498C29.5007 19.8792 31.3164 17.937 34.2522 17.937C37.197 17.937 39.0037 19.8701 39.0037 23.0498V23.0679C39.0037 26.2656 37.2061 28.1987 34.2522 28.1987ZM34.2522 26.374C35.8149 26.374 36.7002 25.1545 36.7002 23.0769V23.0588C36.7002 20.9812 35.8059 19.7527 34.2522 19.7527C32.6895 19.7527 31.7952 20.9812 31.7952 23.0588V23.0769C31.7952 25.1545 32.6895 26.374 34.2522 26.374ZM41.062 28V18.1267H43.3112V19.6353H43.4648C43.9345 18.5784 44.883 17.937 46.3103 17.937C48.5144 17.937 49.7158 19.2649 49.7158 21.6135V28H47.4665V22.1375C47.4665 20.6018 46.8432 19.825 45.4792 19.825C44.1423 19.825 43.3112 20.7644 43.3112 22.2458V28H41.062ZM56.0558 28.0452C53.7885 28.0452 52.8581 27.2864 52.8581 25.3804V19.8701H51.3224V18.1267H52.8581V15.7058H55.1435V18.1267H57.2301V19.8701H55.1435V24.8474C55.1435 25.832 55.5319 26.2476 56.4713 26.2476C56.7875 26.2476 56.9591 26.2385 57.2301 26.2114V27.9458C56.9049 28.009 56.4894 28.0452 56.0558 28.0452ZM60.4266 16.4736C59.6859 16.4736 59.0807 15.8865 59.0807 15.1458C59.0807 14.4141 59.6859 13.8179 60.4266 13.8179C61.1583 13.8179 61.7635 14.4141 61.7635 15.1458C61.7635 15.8865 61.1583 16.4736 60.4266 16.4736ZM59.2975 28V18.1267H61.5467V28H59.2975ZM64.1109 28V18.1267H66.3602V19.6353H66.5137C66.9834 18.5784 67.9319 17.937 69.3592 17.937C71.5633 17.937 72.7647 19.2649 72.7647 21.6135V28H70.5154V22.1375C70.5154 20.6018 69.8921 19.825 68.5281 19.825C67.1912 19.825 66.3602 20.7644 66.3602 22.2458V28H64.1109ZM78.4905 28.1987C76.2683 28.1987 75.1301 26.8618 75.1301 24.5132V18.1267H77.3794V23.9983C77.3794 25.5249 77.9485 26.3018 79.3035 26.3018C80.7578 26.3018 81.5347 25.3623 81.5347 23.8809V18.1267H83.7839V28H81.5347V26.5005H81.3811C80.9204 27.5574 79.9177 28.1987 78.4905 28.1987ZM90.5576 28.1987C87.6218 28.1987 85.8422 26.2295 85.8422 23.0859V23.0769C85.8422 19.9695 87.6398 17.937 90.4492 17.937C93.2585 17.937 94.9929 19.9062 94.9929 22.8872V23.6279H88.0915C88.1186 25.3984 89.0761 26.4282 90.6027 26.4282C91.8222 26.4282 92.5178 25.814 92.7346 25.3623L92.7617 25.2991H94.9025L94.8754 25.3804C94.5593 26.6541 93.2404 28.1987 90.5576 28.1987ZM90.4763 19.6985C89.2207 19.6985 88.2812 20.5476 88.1096 22.1194H92.7978C92.6442 20.5024 91.7319 19.6985 90.4763 19.6985ZM103.653 28L100.979 18.1267H103.238L104.882 25.543H105.035L106.932 18.1267H109.073L110.988 25.543H111.142L112.777 18.1267H115.008L112.334 28H109.976L108.052 20.8457H107.899L105.984 28H103.653ZM117.924 16.4736C117.184 16.4736 116.578 15.8865 116.578 15.1458C116.578 14.4141 117.184 13.8179 117.924 13.8179C118.656 13.8179 119.261 14.4141 119.261 15.1458C119.261 15.8865 118.656 16.4736 117.924 16.4736ZM116.795 28V18.1267H119.044V28H116.795ZM125.493 28.0452C123.226 28.0452 122.295 27.2864 122.295 25.3804V19.8701H120.76V18.1267H122.295V15.7058H124.581V18.1267H126.667V19.8701H124.581V24.8474C124.581 25.832 124.969 26.2476 125.908 26.2476C126.225 26.2476 126.396 26.2385 126.667 26.2114V27.9458C126.342 28.009 125.927 28.0452 125.493 28.0452ZM128.798 28V14.3057H131.047V19.6353H131.201C131.67 18.5784 132.619 17.937 134.046 17.937C136.25 17.937 137.452 19.2649 137.452 21.6135V28H135.202V22.1375C135.202 20.6018 134.579 19.825 133.215 19.825C131.878 19.825 131.047 20.7644 131.047 22.2458V28H128.798Z" fill="white"/>
<path fill-rule="evenodd" clip-rule="evenodd" d="M199 20.6636C198.392 18.3452 196.917 17.4249 194.903 17.4249C193.272 17.4249 191.224 18.3452 191.224 20.5613C191.224 21.993 192.213 23.1182 193.827 23.4081L195.355 23.6806C196.396 23.868 196.691 24.2602 196.691 24.7887C196.691 25.3853 196.049 25.7261 195.095 25.7261C193.845 25.7261 193.064 25.283 192.942 24.0385L190.738 24.3795C191.085 26.7828 193.237 27.7718 195.181 27.7718C197.021 27.7718 198.982 26.7147 198.982 24.5841C198.982 23.135 198.097 22.0785 196.448 21.7712L194.765 21.4647C193.827 21.2943 193.515 20.834 193.515 20.3908C193.515 19.8282 194.122 19.4706 194.956 19.4706C196.014 19.4706 196.761 19.8282 196.795 21.0044L199 20.6636ZM149.999 24.311L152.29 17.6805H154.98L150.988 27.5157H148.992L145 17.6806H147.69L149.999 24.311ZM164.076 20.4931C164.076 21.2771 163.451 21.8226 162.722 21.8226C161.993 21.8226 161.368 21.2771 161.368 20.4931C161.368 19.709 161.993 19.1637 162.722 19.1637C163.451 19.1637 164.076 19.709 164.076 20.4931H164.076ZM164.492 23.9705C163.59 25.1293 162.635 25.9305 160.951 25.9305C159.233 25.9305 157.897 24.9078 156.855 23.4079C156.439 22.7942 155.796 22.6579 155.328 22.9818C154.894 23.2887 154.79 23.9364 155.189 24.499C156.629 26.6637 158.625 27.9249 160.951 27.9249C163.086 27.9249 164.753 26.9023 166.054 25.1977C166.54 24.5671 166.523 23.9194 166.054 23.5614C165.62 23.2201 164.978 23.34 164.492 23.9705ZM170.481 22.5726C170.481 24.5841 171.662 25.641 172.981 25.641C174.23 25.641 175.515 24.6522 175.515 22.5726C175.515 20.5269 174.23 19.5385 172.998 19.5385C171.662 19.5385 170.481 20.476 170.481 22.5726ZM170.481 19.0445V17.6975H168.034V30.9249H170.481V26.2202C171.297 27.3113 172.356 27.7718 173.553 27.7718C175.793 27.7718 177.979 26.033 177.979 22.4535C177.979 19.0271 175.706 17.4251 173.762 17.4251C172.217 17.4251 171.158 18.1238 170.481 19.0445ZM182.233 22.5726C182.233 24.5841 183.413 25.641 184.732 25.641C185.982 25.641 187.266 24.6522 187.266 22.5726C187.266 20.5269 185.982 19.5385 184.749 19.5385C183.413 19.5385 182.232 20.476 182.232 22.5726H182.233ZM182.233 19.0445V17.6975H182.232H179.785V30.9249H182.232V26.2202C183.048 27.3113 184.107 27.7718 185.304 27.7718C187.544 27.7718 189.731 26.033 189.731 22.4535C189.731 19.0271 187.457 17.4251 185.513 17.4251C183.968 17.4251 182.91 18.1238 182.233 19.0445Z" fill="white"/>
</svg>
