<svg width="214" height="43" viewBox="0 0 214 43" fill="none" xmlns="http://www.w3.org/2000/svg">
<rect width="214" height="43" rx="5" fill="#FF5B24"/>
<path d="M30.3589 28V14.9651H32.6895V26.0398H38.6694V28H30.3589ZM44.5578 28.1987C41.5949 28.1987 39.8063 26.2656 39.8063 23.0679V23.0498C39.8063 19.8792 41.622 17.937 44.5578 17.937C47.5026 17.937 49.3093 19.8701 49.3093 23.0498V23.0679C49.3093 26.2656 47.5117 28.1987 44.5578 28.1987ZM44.5578 26.374C46.1206 26.374 47.0058 25.1545 47.0058 23.0769V23.0588C47.0058 20.9812 46.1115 19.7527 44.5578 19.7527C42.9951 19.7527 42.1008 20.9812 42.1008 23.0588V23.0769C42.1008 25.1545 42.9951 26.374 44.5578 26.374ZM55.6132 31.4688C53.0116 31.4688 51.4489 30.3577 51.223 28.6956L51.2321 28.6685H53.4813L53.4904 28.6956C53.6439 29.3279 54.3937 29.7705 55.6493 29.7705C57.185 29.7705 58.0792 29.0569 58.0792 27.7922V25.9043H57.9257C57.3566 26.9612 56.2816 27.5393 54.9176 27.5393C52.4154 27.5393 50.8617 25.6062 50.8617 22.8059V22.7878C50.8617 19.9333 52.4154 17.9641 54.9628 17.9641C56.3268 17.9641 57.3927 18.6326 57.9528 19.7527H58.0702V18.1267H60.3195V27.7561C60.3195 30.0325 58.4948 31.4688 55.6132 31.4688ZM55.6132 25.7507C57.1759 25.7507 58.1154 24.5493 58.1154 22.8059V22.7878C58.1154 21.0444 57.1669 19.834 55.6132 19.834C54.0504 19.834 53.1652 21.0444 53.1652 22.7878V22.8059C53.1652 24.5493 54.0504 25.7507 55.6132 25.7507ZM68.763 16.4736C68.0223 16.4736 67.417 15.8865 67.417 15.1458C67.417 14.4141 68.0223 13.8179 68.763 13.8179C69.4947 13.8179 70.0999 14.4141 70.0999 15.1458C70.0999 15.8865 69.4947 16.4736 68.763 16.4736ZM67.6338 28V18.1267H69.8831V28H67.6338ZM72.4473 28V18.1267H74.6965V19.6353H74.8501C75.3198 18.5784 76.2683 17.937 77.6956 17.937C79.8997 17.937 81.1011 19.2649 81.1011 21.6135V28H78.8518V22.1375C78.8518 20.6018 78.2285 19.825 76.8645 19.825C75.5276 19.825 74.6965 20.7644 74.6965 22.2458V28H72.4473ZM90.1679 28L87.494 18.1267H89.7523L91.3964 25.543H91.5499L93.4469 18.1267H95.5878L97.5028 25.543H97.6564L99.2914 18.1267H101.523L98.8488 28H96.4911L94.567 20.8457H94.4135L92.4984 28H90.1679ZM104.439 16.4736C103.698 16.4736 103.093 15.8865 103.093 15.1458C103.093 14.4141 103.698 13.8179 104.439 13.8179C105.171 13.8179 105.776 14.4141 105.776 15.1458C105.776 15.8865 105.171 16.4736 104.439 16.4736ZM103.31 28V18.1267H105.559V28H103.31ZM112.008 28.0452C109.74 28.0452 108.81 27.2864 108.81 25.3804V19.8701H107.274V18.1267H108.81V15.7058H111.095V18.1267H113.182V19.8701H111.095V24.8474C111.095 25.832 111.484 26.2476 112.423 26.2476C112.739 26.2476 112.911 26.2385 113.182 26.2114V27.9458C112.857 28.009 112.441 28.0452 112.008 28.0452ZM115.312 28V14.3057H117.562V19.6353H117.715C118.185 18.5784 119.134 17.937 120.561 17.937C122.765 17.937 123.966 19.2649 123.966 21.6135V28H121.717V22.1375C121.717 20.6018 121.094 19.825 119.73 19.825C118.393 19.825 117.562 20.7644 117.562 22.2458V28H115.312Z" fill="white"/>
<path fill-rule="evenodd" clip-rule="evenodd" d="M185.5 20.6636C184.892 18.3452 183.417 17.4249 181.403 17.4249C179.772 17.4249 177.724 18.3452 177.724 20.5613C177.724 21.993 178.713 23.1182 180.327 23.4081L181.855 23.6806C182.896 23.868 183.191 24.2602 183.191 24.7887C183.191 25.3853 182.549 25.7261 181.595 25.7261C180.345 25.7261 179.564 25.283 179.442 24.0385L177.238 24.3795C177.585 26.7828 179.737 27.7718 181.681 27.7718C183.521 27.7718 185.482 26.7147 185.482 24.5841C185.482 23.135 184.597 22.0785 182.948 21.7712L181.265 21.4647C180.327 21.2943 180.015 20.834 180.015 20.3908C180.015 19.8282 180.622 19.4706 181.456 19.4706C182.514 19.4706 183.261 19.8282 183.295 21.0044L185.5 20.6636ZM136.499 24.311L138.79 17.6805H141.48L137.488 27.5157H135.492L131.5 17.6806H134.19L136.499 24.311ZM150.576 20.4931C150.576 21.2771 149.951 21.8226 149.222 21.8226C148.493 21.8226 147.868 21.2771 147.868 20.4931C147.868 19.709 148.493 19.1637 149.222 19.1637C149.951 19.1637 150.576 19.709 150.576 20.4931H150.576ZM150.992 23.9705C150.09 25.1293 149.135 25.9305 147.451 25.9305C145.733 25.9305 144.397 24.9078 143.355 23.4079C142.939 22.7942 142.296 22.6579 141.828 22.9818C141.394 23.2887 141.29 23.9364 141.689 24.499C143.129 26.6637 145.125 27.9249 147.451 27.9249C149.586 27.9249 151.253 26.9023 152.554 25.1977C153.04 24.5671 153.023 23.9194 152.554 23.5614C152.12 23.2201 151.478 23.34 150.992 23.9705ZM156.981 22.5726C156.981 24.5841 158.162 25.641 159.481 25.641C160.73 25.641 162.015 24.6522 162.015 22.5726C162.015 20.5269 160.73 19.5385 159.498 19.5385C158.162 19.5385 156.981 20.476 156.981 22.5726ZM156.981 19.0445V17.6975H154.534V30.9249H156.981V26.2202C157.797 27.3113 158.856 27.7718 160.053 27.7718C162.293 27.7718 164.479 26.033 164.479 22.4535C164.479 19.0271 162.206 17.4251 160.262 17.4251C158.717 17.4251 157.658 18.1238 156.981 19.0445ZM168.733 22.5726C168.733 24.5841 169.913 25.641 171.232 25.641C172.482 25.641 173.766 24.6522 173.766 22.5726C173.766 20.5269 172.482 19.5385 171.249 19.5385C169.913 19.5385 168.732 20.476 168.732 22.5726H168.733ZM168.733 19.0445V17.6975H168.732H166.285V30.9249H168.732V26.2202C169.548 27.3113 170.607 27.7718 171.804 27.7718C174.044 27.7718 176.231 26.033 176.231 22.4535C176.231 19.0271 173.957 17.4251 172.013 17.4251C170.468 17.4251 169.41 18.1238 168.733 19.0445Z" fill="white"/>
</svg>
