<svg width="214" height="43" viewBox="0 0 214 43" fill="none" xmlns="http://www.w3.org/2000/svg">
<rect width="214" height="43" rx="5" fill="#FF5B24"/>
<path d="M18.6435 28V14.9651H20.974V26.0398H26.954V28H18.6435ZM32.8424 28.1987C29.8795 28.1987 28.0909 26.2656 28.0909 23.0679V23.0498C28.0909 19.8792 29.9066 17.937 32.8424 17.937C35.7872 17.937 37.5938 19.8701 37.5938 23.0498V23.0679C37.5938 26.2656 35.7962 28.1987 32.8424 28.1987ZM32.8424 26.374C34.4051 26.374 35.2904 25.1545 35.2904 23.0769V23.0588C35.2904 20.9812 34.3961 19.7527 32.8424 19.7527C31.2796 19.7527 30.3854 20.9812 30.3854 23.0588V23.0769C30.3854 25.1545 31.2796 26.374 32.8424 26.374ZM43.8978 31.4688C41.2962 31.4688 39.7334 30.3577 39.5076 28.6956L39.5166 28.6685H41.7659L41.775 28.6956C41.9285 29.3279 42.6783 29.7705 43.9339 29.7705C45.4695 29.7705 46.3638 29.0569 46.3638 27.7922V25.9043H46.2103C45.6412 26.9612 44.5662 27.5393 43.2022 27.5393C40.7 27.5393 39.1463 25.6062 39.1463 22.8059V22.7878C39.1463 19.9333 40.7 17.9641 43.2474 17.9641C44.6114 17.9641 45.6773 18.6326 46.2374 19.7527H46.3548V18.1267H48.6041V27.7561C48.6041 30.0325 46.7793 31.4688 43.8978 31.4688ZM43.8978 25.7507C45.4605 25.7507 46.4 24.5493 46.4 22.8059V22.7878C46.4 21.0444 45.4515 19.834 43.8978 19.834C42.335 19.834 41.4498 21.0444 41.4498 22.7878V22.8059C41.4498 24.5493 42.335 25.7507 43.8978 25.7507ZM55.4048 31.4688C52.8032 31.4688 51.2405 30.3577 51.0146 28.6956L51.0237 28.6685H53.2729L53.282 28.6956C53.4355 29.3279 54.1853 29.7705 55.4409 29.7705C56.9766 29.7705 57.8708 29.0569 57.8708 27.7922V25.9043H57.7173C57.1482 26.9612 56.0732 27.5393 54.7092 27.5393C52.207 27.5393 50.6533 25.6062 50.6533 22.8059V22.7878C50.6533 19.9333 52.207 17.9641 54.7544 17.9641C56.1184 17.9641 57.1843 18.6326 57.7444 19.7527H57.8618V18.1267H60.1111V27.7561C60.1111 30.0325 58.2864 31.4688 55.4048 31.4688ZM55.4048 25.7507C56.9675 25.7507 57.907 24.5493 57.907 22.8059V22.7878C57.907 21.0444 56.9585 19.834 55.4048 19.834C53.842 19.834 52.9568 21.0444 52.9568 22.7878V22.8059C52.9568 24.5493 53.842 25.7507 55.4048 25.7507ZM68.5546 16.4736C67.8139 16.4736 67.2086 15.8865 67.2086 15.1458C67.2086 14.4141 67.8139 13.8179 68.5546 13.8179C69.2863 13.8179 69.8915 14.4141 69.8915 15.1458C69.8915 15.8865 69.2863 16.4736 68.5546 16.4736ZM67.4254 28V18.1267H69.6747V28H67.4254ZM72.2389 28V18.1267H74.4881V19.6353H74.6417C75.1114 18.5784 76.0599 17.937 77.4872 17.937C79.6913 17.937 80.8927 19.2649 80.8927 21.6135V28H78.6434V22.1375C78.6434 20.6018 78.0201 19.825 76.6561 19.825C75.3192 19.825 74.4881 20.7644 74.4881 22.2458V28H72.2389ZM83.3484 28V18.1267H85.5977V19.6353H85.7513C86.221 18.5784 87.1695 17.937 88.5967 17.937C90.8008 17.937 92.0022 19.2649 92.0022 21.6135V28H89.753V22.1375C89.753 20.6018 89.1297 19.825 87.7657 19.825C86.4288 19.825 85.5977 20.7644 85.5977 22.2458V28H83.3484ZM99.1901 28V18.1267H101.439V19.6624H101.593C102.018 18.5603 103.011 17.937 104.303 17.937C105.64 17.937 106.615 18.6235 107.04 19.7166H107.194C107.672 18.6416 108.81 17.937 110.184 17.937C112.171 17.937 113.363 19.1565 113.363 21.207V28H111.114V21.7581C111.114 20.4753 110.527 19.825 109.325 19.825C108.151 19.825 107.392 20.7012 107.392 21.8303V28H105.143V21.5955C105.143 20.5024 104.466 19.825 103.363 19.825C102.252 19.825 101.439 20.7644 101.439 21.9929V28H99.1901ZM120.056 28.1987C117.12 28.1987 115.34 26.2295 115.34 23.0859V23.0769C115.34 19.9695 117.138 17.937 119.947 17.937C122.756 17.937 124.491 19.9062 124.491 22.8872V23.6279H117.59C117.617 25.3984 118.574 26.4282 120.101 26.4282C121.32 26.4282 122.016 25.814 122.233 25.3623L122.26 25.2991H124.401L124.373 25.3804C124.057 26.6541 122.738 28.1987 120.056 28.1987ZM119.974 19.6985C118.719 19.6985 117.779 20.5476 117.608 22.1194H122.296C122.142 20.5024 121.23 19.6985 119.974 19.6985ZM130.099 28.1626C127.624 28.1626 126.052 26.2024 126.052 23.0769V23.0588C126.052 19.9153 127.597 17.9641 130.099 17.9641C131.454 17.9641 132.583 18.6326 133.098 19.6985H133.252V14.3057H135.51V28H133.252V26.4553H133.098C132.556 27.5303 131.49 28.1626 130.099 28.1626ZM130.804 26.2656C132.339 26.2656 133.288 25.0552 133.288 23.0769V23.0588C133.288 21.0806 132.33 19.8611 130.804 19.8611C129.277 19.8611 128.338 21.0715 128.338 23.0588V23.0769C128.338 25.0642 129.268 26.2656 130.804 26.2656Z" fill="white"/>
<path fill-rule="evenodd" clip-rule="evenodd" d="M197 20.6636C196.392 18.3452 194.917 17.4249 192.903 17.4249C191.272 17.4249 189.224 18.3452 189.224 20.5613C189.224 21.993 190.213 23.1182 191.827 23.4081L193.355 23.6806C194.396 23.868 194.691 24.2602 194.691 24.7887C194.691 25.3853 194.049 25.7261 193.095 25.7261C191.845 25.7261 191.064 25.283 190.942 24.0385L188.738 24.3795C189.085 26.7828 191.237 27.7718 193.181 27.7718C195.021 27.7718 196.982 26.7147 196.982 24.5841C196.982 23.135 196.097 22.0785 194.448 21.7712L192.765 21.4647C191.827 21.2943 191.515 20.834 191.515 20.3908C191.515 19.8282 192.122 19.4706 192.956 19.4706C194.014 19.4706 194.761 19.8282 194.795 21.0044L197 20.6636ZM147.999 24.311L150.29 17.6805H152.98L148.988 27.5157H146.992L143 17.6806H145.69L147.999 24.311ZM162.076 20.4931C162.076 21.2771 161.451 21.8226 160.722 21.8226C159.993 21.8226 159.368 21.2771 159.368 20.4931C159.368 19.709 159.993 19.1637 160.722 19.1637C161.451 19.1637 162.076 19.709 162.076 20.4931H162.076ZM162.492 23.9705C161.59 25.1293 160.635 25.9305 158.951 25.9305C157.233 25.9305 155.897 24.9078 154.855 23.4079C154.439 22.7942 153.796 22.6579 153.328 22.9818C152.894 23.2887 152.79 23.9364 153.189 24.499C154.629 26.6637 156.625 27.9249 158.951 27.9249C161.086 27.9249 162.753 26.9023 164.054 25.1977C164.54 24.5671 164.523 23.9194 164.054 23.5614C163.62 23.2201 162.978 23.34 162.492 23.9705ZM168.481 22.5726C168.481 24.5841 169.662 25.641 170.981 25.641C172.23 25.641 173.515 24.6522 173.515 22.5726C173.515 20.5269 172.23 19.5385 170.998 19.5385C169.662 19.5385 168.481 20.476 168.481 22.5726ZM168.481 19.0445V17.6975H166.034V30.9249H168.481V26.2202C169.297 27.3113 170.356 27.7718 171.553 27.7718C173.793 27.7718 175.979 26.033 175.979 22.4535C175.979 19.0271 173.706 17.4251 171.762 17.4251C170.217 17.4251 169.158 18.1238 168.481 19.0445ZM180.233 22.5726C180.233 24.5841 181.413 25.641 182.732 25.641C183.982 25.641 185.266 24.6522 185.266 22.5726C185.266 20.5269 183.982 19.5385 182.749 19.5385C181.413 19.5385 180.232 20.476 180.232 22.5726H180.233ZM180.233 19.0445V17.6975H180.232H177.785V30.9249H180.232V26.2202C181.048 27.3113 182.107 27.7718 183.304 27.7718C185.544 27.7718 187.731 26.033 187.731 22.4535C187.731 19.0271 185.457 17.4251 183.513 17.4251C181.968 17.4251 180.91 18.1238 180.233 19.0445Z" fill="white"/>
</svg>
