<svg width="214" height="43" viewBox="0 0 214 43" fill="none" xmlns="http://www.w3.org/2000/svg">
<rect width="214" height="43" rx="5" fill="#FF5B24"/>
<path d="M15.8709 28V14.9651H21.1373C23.9375 14.9651 25.6177 16.5278 25.6177 19.012V19.03C25.6177 20.7554 24.7054 22.1826 23.1607 22.7427L26.0062 28H23.3414L20.785 23.095H18.2015V28H15.8709ZM18.2015 21.3064H20.8934C22.3658 21.3064 23.2239 20.4844 23.2239 19.0842V19.0662C23.2239 17.7021 22.3296 16.853 20.8482 16.853H18.2015V21.3064ZM31.9307 28.1987C28.9949 28.1987 27.2153 26.2295 27.2153 23.0859V23.0769C27.2153 19.9695 29.0129 17.937 31.8223 17.937C34.6316 17.937 36.366 19.9062 36.366 22.8872V23.6279H29.4646C29.4917 25.3984 30.4492 26.4282 31.9758 26.4282C33.1953 26.4282 33.8909 25.814 34.1077 25.3623L34.1348 25.2991H36.2756L36.2485 25.3804C35.9324 26.6541 34.6135 28.1987 31.9307 28.1987ZM31.8494 19.6985C30.5938 19.6985 29.6543 20.5476 29.4827 22.1194H34.1709C34.0173 20.5024 33.105 19.6985 31.8494 19.6985ZM42.6608 31.4688C40.0593 31.4688 38.4965 30.3577 38.2707 28.6956L38.2797 28.6685H40.529L40.538 28.6956C40.6916 29.3279 41.4414 29.7705 42.697 29.7705C44.2326 29.7705 45.1269 29.0569 45.1269 27.7922V25.9043H44.9733C44.4042 26.9612 43.3293 27.5393 41.9653 27.5393C39.4631 27.5393 37.9094 25.6062 37.9094 22.8059V22.7878C37.9094 19.9333 39.4631 17.9641 42.0105 17.9641C43.3745 17.9641 44.4404 18.6326 45.0004 19.7527H45.1179V18.1267H47.3671V27.7561C47.3671 30.0325 45.5424 31.4688 42.6608 31.4688ZM42.6608 25.7507C44.2236 25.7507 45.163 24.5493 45.163 22.8059V22.7878C45.163 21.0444 44.2146 19.834 42.6608 19.834C41.0981 19.834 40.2128 21.0444 40.2128 22.7878V22.8059C40.2128 24.5493 41.0981 25.7507 42.6608 25.7507ZM51.0785 16.4736C50.3378 16.4736 49.7326 15.8865 49.7326 15.1458C49.7326 14.4141 50.3378 13.8179 51.0785 13.8179C51.8102 13.8179 52.4154 14.4141 52.4154 15.1458C52.4154 15.8865 51.8102 16.4736 51.0785 16.4736ZM49.9494 28V18.1267H52.1986V28H49.9494ZM58.4935 28.1987C55.9823 28.1987 54.4647 27.0425 54.275 25.3713V25.3533H56.5062L56.5152 25.3713C56.7501 26.0579 57.4095 26.5366 58.5296 26.5366C59.6498 26.5366 60.4266 26.0308 60.4266 25.29V25.272C60.4266 24.6938 59.993 24.3145 58.909 24.0706L57.3102 23.7092C55.4313 23.2937 54.537 22.4084 54.537 20.9541V20.9451C54.537 19.1655 56.1629 17.937 58.4935 17.937C60.8963 17.937 62.3326 19.1294 62.4771 20.7283V20.7463H60.3634L60.3543 20.7192C60.1917 20.0959 59.5414 19.5901 58.4845 19.5901C57.4818 19.5901 56.7591 20.0779 56.7591 20.8186V20.8276C56.7591 21.4058 57.1747 21.7581 58.2406 22.002L59.8395 22.3542C61.7726 22.7878 62.6849 23.6099 62.6849 25.0461V25.0642C62.6849 26.9431 60.9234 28.1987 58.4935 28.1987ZM68.5643 28.0452C66.2969 28.0452 65.3665 27.2864 65.3665 25.3804V19.8701H63.8309V18.1267H65.3665V15.7058H67.6519V18.1267H69.7386V19.8701H67.6519V24.8474C67.6519 25.832 68.0403 26.2476 68.9798 26.2476C69.2959 26.2476 69.4676 26.2385 69.7386 26.2114V27.9458C69.4134 28.009 68.9979 28.0452 68.5643 28.0452ZM71.7788 28V18.1267H74.0281V19.6443H74.1816C74.5159 18.5874 75.4192 17.9641 76.72 17.9641C77.0632 17.9641 77.4155 18.0093 77.6323 18.0725V20.0869C77.271 20.0146 76.9006 19.9604 76.5122 19.9604C75.0127 19.9604 74.0281 20.8547 74.0281 22.2639V28H71.7788ZM83.2497 28.1987C80.3139 28.1987 78.5344 26.2295 78.5344 23.0859V23.0769C78.5344 19.9695 80.332 17.937 83.1413 17.937C85.9506 17.937 87.685 19.9062 87.685 22.8872V23.6279H80.7836C80.8107 25.3984 81.7683 26.4282 83.2949 26.4282C84.5144 26.4282 85.2099 25.814 85.4267 25.3623L85.4538 25.2991H87.5947L87.5676 25.3804C87.2514 26.6541 85.9326 28.1987 83.2497 28.1987ZM83.1684 19.6985C81.9128 19.6985 80.9733 20.5476 80.8017 22.1194H85.4899C85.3364 20.5024 84.424 19.6985 83.1684 19.6985ZM89.7343 28V18.1267H91.9836V19.6443H92.1371C92.4713 18.5874 93.3747 17.9641 94.6754 17.9641C95.0187 17.9641 95.371 18.0093 95.5878 18.0725V20.0869C95.2265 20.0146 94.8561 19.9604 94.4677 19.9604C92.9682 19.9604 91.9836 20.8547 91.9836 22.2639V28H89.7343ZM101.963 28V18.1267H104.212V19.6624H104.366C104.79 18.5603 105.784 17.937 107.075 17.937C108.412 17.937 109.388 18.6235 109.813 19.7166H109.966C110.445 18.6416 111.583 17.937 112.956 17.937C114.943 17.937 116.136 19.1565 116.136 21.207V28H113.887V21.7581C113.887 20.4753 113.299 19.825 112.098 19.825C110.924 19.825 110.165 20.7012 110.165 21.8303V28H107.916V21.5955C107.916 20.5024 107.238 19.825 106.136 19.825C105.025 19.825 104.212 20.7644 104.212 21.9929V28H101.963ZM122.828 28.1987C119.892 28.1987 118.113 26.2295 118.113 23.0859V23.0769C118.113 19.9695 119.91 17.937 122.72 17.937C125.529 17.937 127.263 19.9062 127.263 22.8872V23.6279H120.362C120.389 25.3984 121.347 26.4282 122.873 26.4282C124.093 26.4282 124.788 25.814 125.005 25.3623L125.032 25.2991H127.173L127.146 25.3804C126.83 26.6541 125.511 28.1987 122.828 28.1987ZM122.747 19.6985C121.491 19.6985 120.552 20.5476 120.38 22.1194H125.068C124.915 20.5024 124.002 19.6985 122.747 19.6985ZM132.872 28.1626C130.397 28.1626 128.825 26.2024 128.825 23.0769V23.0588C128.825 19.9153 130.37 17.9641 132.872 17.9641C134.227 17.9641 135.356 18.6326 135.871 19.6985H136.024V14.3057H138.283V28H136.024V26.4553H135.871C135.329 27.5303 134.263 28.1626 132.872 28.1626ZM133.576 26.2656C135.112 26.2656 136.061 25.0552 136.061 23.0769V23.0588C136.061 21.0806 135.103 19.8611 133.576 19.8611C132.05 19.8611 131.11 21.0715 131.11 23.0588V23.0769C131.11 25.0642 132.041 26.2656 133.576 26.2656Z" fill="white"/>
<path fill-rule="evenodd" clip-rule="evenodd" d="M200 20.6636C199.392 18.3452 197.917 17.4249 195.903 17.4249C194.272 17.4249 192.224 18.3452 192.224 20.5613C192.224 21.993 193.213 23.1182 194.827 23.4081L196.355 23.6806C197.396 23.868 197.691 24.2602 197.691 24.7887C197.691 25.3853 197.049 25.7261 196.095 25.7261C194.845 25.7261 194.064 25.283 193.942 24.0385L191.738 24.3795C192.085 26.7828 194.237 27.7718 196.181 27.7718C198.021 27.7718 199.982 26.7147 199.982 24.5841C199.982 23.135 199.097 22.0785 197.448 21.7712L195.765 21.4647C194.827 21.2943 194.515 20.834 194.515 20.3908C194.515 19.8282 195.122 19.4706 195.956 19.4706C197.014 19.4706 197.761 19.8282 197.795 21.0044L200 20.6636ZM150.999 24.311L153.29 17.6805H155.98L151.988 27.5157H149.992L146 17.6806H148.69L150.999 24.311ZM165.076 20.4931C165.076 21.2771 164.451 21.8226 163.722 21.8226C162.993 21.8226 162.368 21.2771 162.368 20.4931C162.368 19.709 162.993 19.1637 163.722 19.1637C164.451 19.1637 165.076 19.709 165.076 20.4931H165.076ZM165.492 23.9705C164.59 25.1293 163.635 25.9305 161.951 25.9305C160.233 25.9305 158.897 24.9078 157.855 23.4079C157.439 22.7942 156.796 22.6579 156.328 22.9818C155.894 23.2887 155.79 23.9364 156.189 24.499C157.629 26.6637 159.625 27.9249 161.951 27.9249C164.086 27.9249 165.753 26.9023 167.054 25.1977C167.54 24.5671 167.523 23.9194 167.054 23.5614C166.62 23.2201 165.978 23.34 165.492 23.9705ZM171.481 22.5726C171.481 24.5841 172.662 25.641 173.981 25.641C175.23 25.641 176.515 24.6522 176.515 22.5726C176.515 20.5269 175.23 19.5385 173.998 19.5385C172.662 19.5385 171.481 20.476 171.481 22.5726ZM171.481 19.0445V17.6975H169.034V30.9249H171.481V26.2202C172.297 27.3113 173.356 27.7718 174.553 27.7718C176.793 27.7718 178.979 26.033 178.979 22.4535C178.979 19.0271 176.706 17.4251 174.762 17.4251C173.217 17.4251 172.158 18.1238 171.481 19.0445ZM183.233 22.5726C183.233 24.5841 184.413 25.641 185.732 25.641C186.982 25.641 188.266 24.6522 188.266 22.5726C188.266 20.5269 186.982 19.5385 185.749 19.5385C184.413 19.5385 183.232 20.476 183.232 22.5726H183.233ZM183.233 19.0445V17.6975H183.232H180.785V30.9249H183.232V26.2202C184.048 27.3113 185.107 27.7718 186.304 27.7718C188.544 27.7718 190.731 26.033 190.731 22.4535C190.731 19.0271 188.457 17.4251 186.513 17.4251C184.968 17.4251 183.909 18.1238 183.233 19.0445Z" fill="white"/>
</svg>
