<svg width="214" height="43" viewBox="0 0 214 43" fill="none" xmlns="http://www.w3.org/2000/svg">
<rect width="214" height="43" rx="21.5" fill="#FF5B24"/>
<path d="M19.9449 28V14.9651H25.2112C28.0115 14.9651 29.6917 16.5278 29.6917 19.012V19.03C29.6917 20.7554 28.7793 22.1826 27.2347 22.7427L30.0801 28H27.4153L24.8589 23.095H22.2754V28H19.9449ZM22.2754 21.3064H24.9673C26.4397 21.3064 27.2979 20.4844 27.2979 19.0842V19.0662C27.2979 17.7021 26.4036 16.853 24.9222 16.853H22.2754V21.3064ZM36.0046 28.1987C33.0688 28.1987 31.2893 26.2295 31.2893 23.0859V23.0769C31.2893 19.9695 33.0869 17.937 35.8962 17.937C38.7056 17.937 40.4399 19.9062 40.4399 22.8872V23.6279H33.5386C33.5657 25.3984 34.5232 26.4282 36.0498 26.4282C37.2693 26.4282 37.9648 25.814 38.1816 25.3623L38.2087 25.2991H40.3496L40.3225 25.3804C40.0063 26.6541 38.6875 28.1987 36.0046 28.1987ZM35.9233 19.6985C34.6677 19.6985 33.7283 20.5476 33.5566 22.1194H38.2449C38.0913 20.5024 37.179 19.6985 35.9233 19.6985ZM46.7348 31.4688C44.1333 31.4688 42.5705 30.3577 42.3447 28.6956L42.3537 28.6685H44.603L44.612 28.6956C44.7656 29.3279 45.5153 29.7705 46.7709 29.7705C48.3066 29.7705 49.2009 29.0569 49.2009 27.7922V25.9043H49.0473C48.4782 26.9612 47.4033 27.5393 46.0393 27.5393C43.5371 27.5393 41.9834 25.6062 41.9834 22.8059V22.7878C41.9834 19.9333 43.5371 17.9641 46.0844 17.9641C47.4484 17.9641 48.5144 18.6326 49.0744 19.7527H49.1918V18.1267H51.4411V27.7561C51.4411 30.0325 49.6164 31.4688 46.7348 31.4688ZM46.7348 25.7507C48.2976 25.7507 49.237 24.5493 49.237 22.8059V22.7878C49.237 21.0444 48.2885 19.834 46.7348 19.834C45.1721 19.834 44.2868 21.0444 44.2868 22.7878V22.8059C44.2868 24.5493 45.1721 25.7507 46.7348 25.7507ZM55.1525 16.4736C54.4118 16.4736 53.8065 15.8865 53.8065 15.1458C53.8065 14.4141 54.4118 13.8179 55.1525 13.8179C55.8842 13.8179 56.4894 14.4141 56.4894 15.1458C56.4894 15.8865 55.8842 16.4736 55.1525 16.4736ZM54.0233 28V18.1267H56.2726V28H54.0233ZM62.5675 28.1987C60.0563 28.1987 58.5387 27.0425 58.349 25.3713V25.3533H60.5802L60.5892 25.3713C60.8241 26.0579 61.4835 26.5366 62.6036 26.5366C63.7237 26.5366 64.5006 26.0308 64.5006 25.29V25.272C64.5006 24.6938 64.067 24.3145 62.983 24.0706L61.3841 23.7092C59.5052 23.2937 58.6109 22.4084 58.6109 20.9541V20.9451C58.6109 19.1655 60.2369 17.937 62.5675 17.937C64.9703 17.937 66.4066 19.1294 66.5511 20.7283V20.7463H64.4374L64.4283 20.7192C64.2657 20.0959 63.6153 19.5901 62.5584 19.5901C61.5558 19.5901 60.8331 20.0779 60.8331 20.8186V20.8276C60.8331 21.4058 61.2486 21.7581 62.3146 22.002L63.9134 22.3542C65.8465 22.7878 66.7589 23.6099 66.7589 25.0461V25.0642C66.7589 26.9431 64.9974 28.1987 62.5675 28.1987ZM72.6382 28.0452C70.3709 28.0452 69.4405 27.2864 69.4405 25.3804V19.8701H67.9048V18.1267H69.4405V15.7058H71.7259V18.1267H73.8125V19.8701H71.7259V24.8474C71.7259 25.832 72.1143 26.2476 73.0538 26.2476C73.3699 26.2476 73.5416 26.2385 73.8125 26.2114V27.9458C73.4874 28.009 73.0718 28.0452 72.6382 28.0452ZM79.99 28.1987C77.0542 28.1987 75.2747 26.2295 75.2747 23.0859V23.0769C75.2747 19.9695 77.0723 17.937 79.8816 17.937C82.6909 17.937 84.4253 19.9062 84.4253 22.8872V23.6279H77.5239C77.551 25.3984 78.5085 26.4282 80.0352 26.4282C81.2546 26.4282 81.9502 25.814 82.167 25.3623L82.1941 25.2991H84.335L84.3079 25.3804C83.9917 26.6541 82.6729 28.1987 79.99 28.1987ZM79.9087 19.6985C78.6531 19.6985 77.7136 20.5476 77.542 22.1194H82.2302C82.0767 20.5024 81.1643 19.6985 79.9087 19.6985ZM86.4746 28V18.1267H88.7238V19.6443H88.8774C89.2116 18.5874 90.1149 17.9641 91.4157 17.9641C91.759 17.9641 92.1113 18.0093 92.3281 18.0725V20.0869C91.9668 20.0146 91.5964 19.9604 91.208 19.9604C89.7085 19.9604 88.7238 20.8547 88.7238 22.2639V28H86.4746ZM100.582 28L97.9081 18.1267H100.166L101.81 25.543H101.964L103.861 18.1267H106.002L107.917 25.543H108.07L109.705 18.1267H111.937L109.263 28H106.905L104.981 20.8457H104.827L102.912 28H100.582ZM114.853 16.4736C114.112 16.4736 113.507 15.8865 113.507 15.1458C113.507 14.4141 114.112 13.8179 114.853 13.8179C115.585 13.8179 116.19 14.4141 116.19 15.1458C116.19 15.8865 115.585 16.4736 114.853 16.4736ZM113.724 28V18.1267H115.973V28H113.724ZM122.422 28.0452C120.154 28.0452 119.224 27.2864 119.224 25.3804V19.8701H117.688V18.1267H119.224V15.7058H121.509V18.1267H123.596V19.8701H121.509V24.8474C121.509 25.832 121.898 26.2476 122.837 26.2476C123.153 26.2476 123.325 26.2385 123.596 26.2114V27.9458C123.271 28.009 122.855 28.0452 122.422 28.0452ZM125.727 28V14.3057H127.976V19.6353H128.129C128.599 18.5784 129.548 17.937 130.975 17.937C133.179 17.937 134.38 19.2649 134.38 21.6135V28H132.131V22.1375C132.131 20.6018 131.508 19.825 130.144 19.825C128.807 19.825 127.976 20.7644 127.976 22.2458V28H125.727Z" fill="white"/>
<path fill-rule="evenodd" clip-rule="evenodd" d="M196 20.6636C195.392 18.3452 193.917 17.4249 191.903 17.4249C190.272 17.4249 188.224 18.3452 188.224 20.5613C188.224 21.993 189.213 23.1182 190.827 23.4081L192.355 23.6806C193.396 23.868 193.691 24.2602 193.691 24.7887C193.691 25.3853 193.049 25.7261 192.095 25.7261C190.845 25.7261 190.064 25.283 189.942 24.0385L187.738 24.3795C188.085 26.7828 190.237 27.7718 192.181 27.7718C194.021 27.7718 195.982 26.7147 195.982 24.5841C195.982 23.135 195.097 22.0785 193.448 21.7712L191.765 21.4647C190.827 21.2943 190.515 20.834 190.515 20.3908C190.515 19.8282 191.122 19.4706 191.956 19.4706C193.014 19.4706 193.761 19.8282 193.795 21.0044L196 20.6636ZM146.999 24.311L149.29 17.6805H151.98L147.988 27.5157H145.992L142 17.6806H144.69L146.999 24.311ZM161.076 20.4931C161.076 21.2771 160.451 21.8226 159.722 21.8226C158.993 21.8226 158.368 21.2771 158.368 20.4931C158.368 19.709 158.993 19.1637 159.722 19.1637C160.451 19.1637 161.076 19.709 161.076 20.4931H161.076ZM161.492 23.9705C160.59 25.1293 159.635 25.9305 157.951 25.9305C156.233 25.9305 154.897 24.9078 153.855 23.4079C153.439 22.7942 152.796 22.6579 152.328 22.9818C151.894 23.2887 151.79 23.9364 152.189 24.499C153.629 26.6637 155.625 27.9249 157.951 27.9249C160.086 27.9249 161.753 26.9023 163.054 25.1977C163.54 24.5671 163.523 23.9194 163.054 23.5614C162.62 23.2201 161.978 23.34 161.492 23.9705ZM167.481 22.5726C167.481 24.5841 168.662 25.641 169.981 25.641C171.23 25.641 172.515 24.6522 172.515 22.5726C172.515 20.5269 171.23 19.5385 169.998 19.5385C168.662 19.5385 167.481 20.476 167.481 22.5726ZM167.481 19.0445V17.6975H165.034V30.9249H167.481V26.2202C168.297 27.3113 169.356 27.7718 170.553 27.7718C172.793 27.7718 174.979 26.033 174.979 22.4535C174.979 19.0271 172.706 17.4251 170.762 17.4251C169.217 17.4251 168.158 18.1238 167.481 19.0445ZM179.233 22.5726C179.233 24.5841 180.413 25.641 181.732 25.641C182.982 25.641 184.266 24.6522 184.266 22.5726C184.266 20.5269 182.982 19.5385 181.749 19.5385C180.413 19.5385 179.232 20.476 179.232 22.5726H179.233ZM179.233 19.0445V17.6975H179.232H176.785V30.9249H179.232V26.2202C180.048 27.3113 181.107 27.7718 182.304 27.7718C184.544 27.7718 186.731 26.033 186.731 22.4535C186.731 19.0271 184.457 17.4251 182.513 17.4251C180.968 17.4251 179.909 18.1238 179.233 19.0445Z" fill="white"/>
</svg>
